<?xml version="1.0" encoding="UTF-8" standalone="no"?>
<!-- Created with Inkscape (http://www.inkscape.org/) -->

<svg
   width="88"
   height="31"
   viewBox="0 0 23.283333 8.2020833"
   version="1.1"
   id="svg1"
   inkscape:version="1.3.2 (091e20ef0f, 2023-11-25, custom)"
   sodipodi:docname="laozhainan.svg"
   inkscape:export-filename="../../../../tmp/button_raw.png"
   inkscape:export-xdpi="96"
   inkscape:export-ydpi="96"
   xmlns:inkscape="http://www.inkscape.org/namespaces/inkscape"
   xmlns:sodipodi="http://sodipodi.sourceforge.net/DTD/sodipodi-0.dtd"
   xmlns:xlink="http://www.w3.org/1999/xlink"
   xmlns="http://www.w3.org/2000/svg"
   xmlns:svg="http://www.w3.org/2000/svg">
  <sodipodi:namedview
     id="namedview1"
     pagecolor="#ffffff"
     bordercolor="#000000"
     borderopacity="0.25"
     inkscape:showpageshadow="2"
     inkscape:pageopacity="0.0"
     inkscape:pagecheckerboard="0"
     inkscape:deskcolor="#d1d1d1"
     inkscape:document-units="mm"
     inkscape:zoom="9.0368126"
     inkscape:cx="53.392719"
     inkscape:cy="8.0780694"
     inkscape:window-width="1876"
     inkscape:window-height="1002"
     inkscape:window-x="0"
     inkscape:window-y="0"
     inkscape:window-maximized="1"
     inkscape:current-layer="layer1" />
  <defs
     id="defs1">
    <linearGradient
       id="swatch3"
       inkscape:swatch="solid">
      <stop
         style="stop-color:#224466;stop-opacity:1;"
         offset="0"
         id="stop4" />
    </linearGradient>
    <linearGradient
       id="linearGradient1"
       inkscape:collect="always">
      <stop
         style="stop-color:#99afbd;stop-opacity:1;"
         offset="0"
         id="stop1" />
      <stop
         style="stop-color:#e1c6a8;stop-opacity:1;"
         offset="0.5"
         id="stop3" />
      <stop
         style="stop-color:#99afbd;stop-opacity:1;"
         offset="1"
         id="stop2" />
    </linearGradient>
    <linearGradient
       inkscape:collect="always"
       xlink:href="#linearGradient1"
       id="linearGradient2"
       x1="11.71433"
       y1="0.090131186"
       x2="11.71433"
       y2="8.0238886"
       gradientUnits="userSpaceOnUse"
       gradientTransform="translate(0.03431061,0.02150132)" />
    <filter
       style="color-interpolation-filters:sRGB"
       id="filter4"
       inkscape:label="filter1"
       x="0"
       y="0"
       width="1"
       height="1">
      <feTurbulence
         id="feTurbulence4"
         numOctaves="2"
         type="fractalNoise"
         baseFrequency="0.5 5" />
      <feColorMatrix
         id="feColorMatrix4"
         values="3.0000000 0.0000000 0.0000000 0.0000000 0.10000000 2.0000000 0.0000000 0.0000000 0.0000000 0.20000000 1.0000000 0.0000000 0.0000000 0.0000000 0.30000000 0.0000000 0.40000000 0.0000000 0.0000000 0.0000000 " />
    </filter>
  </defs>
  <g
     inkscape:label="Layer 1"
     inkscape:groupmode="layer"
     id="layer1">
    <rect
       style="fill:url(#linearGradient2);stroke-width:0.52916667;stroke-dasharray:none"
       id="rect1"
       width="23.283333"
       height="8.2020836"
       x="0"
       y="0" />
    <path
       id="rect2"
       style="fill:#224466;stroke-width:2.275;filter:url(#filter4)"
       d="m 0,4.2333331 h 23.283333 v 3.96875 H 0 Z" />
    <ellipse
       style="fill:#ffffff;fill-opacity:1;stroke-width:2.27542"
       id="path3"
       cx="11.641666"
       cy="2.1186557"
       rx="0.685"
       ry="0.68497646" />
    <path
       d="M 1.5645198,5.6115437 H 3.5114829 V 5.1750816 H 2.0266561 V 2.5648673 H 1.5645198 Z m 3.4788584,0 h 0.436462 V 4.1309959 c 0,-0.53488 -0.3679974,-0.7145997 -0.9028774,-0.7145997 -0.325207,0 -0.5648332,0.085581 -0.7317158,0.316649 L 4.1875702,3.9940666 C 4.2645929,3.8699744 4.3715689,3.827184 4.598358,3.827184 c 0.3123699,0 0.4450202,0.072744 0.4450202,0.2781376 V 4.3321107 H 4.4400335 c -0.4664153,0 -0.7060415,0.2952538 -0.7060415,0.641856 0,0.3765555 0.2824166,0.6632512 0.7659481,0.6632512 0.2952538,0 0.4450201,-0.068465 0.53488,-0.218231 h 0.00856 z m 0,-0.7616691 c 0,0.3380441 -0.1240922,0.3765555 -0.4878106,0.3765555 -0.2952537,0 -0.4107878,-0.1283712 -0.4107878,-0.2738586 0,-0.1583245 0.1198131,-0.2610214 0.3765555,-0.2610214 H 5.0433782 Z M 5.9376977,4.5246675 c 0,0.4706944 0.068465,0.6504141 0.2353472,0.8344128 0.1198131,0.1326502 0.320928,0.2781376 0.6589722,0.2781376 0.3380441,0 0.539159,-0.1454874 0.6589721,-0.2781376 0.1668826,-0.1839987 0.2353472,-0.3637184 0.2353472,-0.8344128 0,-0.4664153 -0.068465,-0.646135 -0.2353472,-0.8301337 C 7.3711761,3.5618836 7.1700612,3.4163962 6.8320171,3.4163962 6.4939729,3.4163962 6.292858,3.5618836 6.1730449,3.6945338 6.0061624,3.8785325 5.9376977,4.0582522 5.9376977,4.5246675 Z m 1.3521766,0.00428 c 0,0.3123699 -0.025674,0.3979507 -0.106976,0.5134848 -0.064186,0.08986 -0.2011148,0.1583244 -0.3508812,0.1583244 -0.1497664,0 -0.2866957,-0.068465 -0.3508813,-0.1583244 -0.081302,-0.1155341 -0.106976,-0.2011149 -0.106976,-0.5177639 0,-0.3123699 0.025674,-0.3979507 0.106976,-0.5134848 0.064186,-0.08986 0.2011149,-0.1583244 0.3508813,-0.1583244 0.1497664,0 0.2866956,0.068465 0.3508812,0.1583244 0.081302,0.1155341 0.106976,0.2011149 0.106976,0.5177639 z M 8.0429851,5.6115437 H 9.6604622 V 5.2007558 H 8.573586 L 9.6604622,3.7886727 V 3.4420704 H 8.1028917 V 3.827184 H 9.1298612 L 8.0429851,5.2649414 Z m 2.0411029,0 H 10.52055 V 4.3192736 c 0,-0.2952537 0.183999,-0.4664153 0.432183,-0.4664153 0.243905,0 0.427904,0.1711616 0.427904,0.4664153 v 1.2922701 h 0.436462 V 4.1695072 c 0,-0.4920896 -0.385113,-0.753111 -0.723157,-0.753111 -0.231069,0 -0.427904,0.085581 -0.564834,0.2567424 h -0.0086 V 2.5648673 h -0.436462 z m 3.436072,0 h 0.436462 V 4.1309959 c 0,-0.53488 -0.367998,-0.7145997 -0.902878,-0.7145997 -0.325207,0 -0.564833,0.085581 -0.731716,0.316649 l 0.342324,0.2610214 c 0.07702,-0.1240922 0.183998,-0.1668826 0.410787,-0.1668826 0.31237,0 0.445021,0.072744 0.445021,0.2781376 v 0.2267891 h -0.603345 c -0.466415,0 -0.706042,0.2952538 -0.706042,0.641856 0,0.3765555 0.282417,0.6632512 0.765948,0.6632512 0.295254,0 0.445021,-0.068465 0.53488,-0.218231 h 0.0086 z m 0,-0.7616691 c 0,0.3380441 -0.124093,0.3765555 -0.487811,0.3765555 -0.295254,0 -0.410788,-0.1283712 -0.410788,-0.2738586 0,-0.1583245 0.119813,-0.2610214 0.376556,-0.2610214 h 0.522043 z m 1.014133,0.7616691 h 0.436462 V 3.4420704 h -0.436462 z m 0,-2.6102144 h 0.436462 v -0.436462 h -0.436462 z m 1.014131,2.6102144 h 0.436462 V 4.3192736 c 0,-0.2952537 0.183998,-0.4664153 0.432183,-0.4664153 0.243905,0 0.427904,0.1711616 0.427904,0.4664153 v 1.2922701 h 0.436462 V 4.1695072 c 0,-0.4920896 -0.385114,-0.753111 -0.723158,-0.753111 -0.231068,0 -0.427904,0.085581 -0.564833,0.2567424 h -0.0086 V 3.4420704 h -0.436462 z m 3.436072,0 h 0.436462 V 4.1309959 c 0,-0.53488 -0.367997,-0.7145997 -0.902877,-0.7145997 -0.325207,0 -0.564834,0.085581 -0.731716,0.316649 l 0.342323,0.2610214 c 0.07702,-0.1240922 0.183999,-0.1668826 0.410788,-0.1668826 0.31237,0 0.44502,0.072744 0.44502,0.2781376 v 0.2267891 h -0.603345 c -0.466415,0 -0.706041,0.2952538 -0.706041,0.641856 0,0.3765555 0.282416,0.6632512 0.765948,0.6632512 0.295254,0 0.44502,-0.068465 0.53488,-0.218231 h 0.0086 z m 0,-0.7616691 c 0,0.3380441 -0.124092,0.3765555 -0.487811,0.3765555 -0.295253,0 -0.410787,-0.1283712 -0.410787,-0.2738586 0,-0.1583245 0.119813,-0.2610214 0.376555,-0.2610214 h 0.522043 z m 1.001296,0.7616691 h 0.436462 V 4.3192736 c 0,-0.2952537 0.183999,-0.4664153 0.432183,-0.4664153 0.243905,0 0.427904,0.1711616 0.427904,0.4664153 v 1.2922701 h 0.436462 V 4.1695072 c 0,-0.4920896 -0.385113,-0.753111 -0.723158,-0.753111 -0.231068,0 -0.427904,0.085581 -0.564833,0.2567424 h -0.0086 V 3.4420704 h -0.436462 z"
       id="text3"
       style="font-size:4.27904px;font-family:'DIN 1451 Std';-inkscape-font-specification:'DIN 1451 Std';fill:#224466;stroke-width:2.50908"
       aria-label="Laozhainan" />
  </g>
</svg>
