<?xml version="1.0" encoding="UTF-8" standalone="no"?>
<!-- Created with Inkscape (http://www.inkscape.org/) -->

<svg
   width="88"
   height="31"
   viewBox="0 0 23.283334 8.2020833"
   version="1.1"
   id="svg5"
   inkscape:version="1.2.2 (b0a8486541, 2022-12-01)"
   sodipodi:docname="88x31.svg"
   inkscape:export-filename="88x31.png"
   inkscape:export-xdpi="96"
   inkscape:export-ydpi="96"
   xmlns:inkscape="http://www.inkscape.org/namespaces/inkscape"
   xmlns:sodipodi="http://sodipodi.sourceforge.net/DTD/sodipodi-0.dtd"
   xmlns="http://www.w3.org/2000/svg"
   xmlns:svg="http://www.w3.org/2000/svg">
  <sodipodi:namedview
     id="namedview7"
     pagecolor="#ffffff"
     bordercolor="#666666"
     borderopacity="1.0"
     inkscape:showpageshadow="2"
     inkscape:pageopacity="0.0"
     inkscape:pagecheckerboard="true"
     inkscape:deskcolor="#d1d1d1"
     inkscape:document-units="mm"
     showgrid="true"
     inkscape:zoom="8.8089156"
     inkscape:cx="51.481933"
     inkscape:cy="33.715841"
     inkscape:window-width="1920"
     inkscape:window-height="1030"
     inkscape:window-x="0"
     inkscape:window-y="0"
     inkscape:window-maximized="1"
     inkscape:current-layer="layer1">
    <inkscape:grid
       type="xygrid"
       id="grid132"
       empspacing="6" />
  </sodipodi:namedview>
  <defs
     id="defs2" />
  <g
     inkscape:label="Layer 1"
     inkscape:groupmode="layer"
     id="layer1">
    <rect
       style="fill:#ffffff;fill-opacity:1;stroke:#28929f;stroke-width:0.52916667;stroke-dasharray:none;stroke-opacity:1"
       id="rect2099"
       width="23.283333"
       height="8.2020836"
       x="0"
       y="0" />
    <g
       id="g679"
       transform="matrix(0.98551617,0,0,0.98551617,-0.02785997,-0.59833055)">
      <path
         id="path852"
         style="display:inline;fill:none;fill-opacity:1;stroke:#ffffff;stroke-width:0.701605;stroke-linecap:butt;stroke-linejoin:miter;stroke-dasharray:none;stroke-opacity:1"
         d="m 3.5400182,2.2975544 c -2.2808104,0 -2.2808151,0.7602718 -2.2808151,0.7602718 V 6.098913 c 0,0 2.3e-6,1.1404075 2.2808151,1.1404075 2.2808127,0 2.2808151,-1.1404075 2.2808151,-1.1404075 V 3.0578262 c 0,0 -4.7e-6,-0.7602718 -2.2808151,-0.7602718 z" />
      <path
         id="path1424"
         style="display:inline;fill:#e4edee;fill-opacity:1;stroke:none;stroke-width:0.701605;stroke-linecap:butt;stroke-linejoin:miter;stroke-dasharray:none;stroke-opacity:1"
         d="m 3.5400182,2.2975544 c -2.2808104,0 -2.2808151,0.7602718 -2.2808151,0.7602718 V 6.098913 c 0,0 2.3e-6,1.1404075 2.2808151,1.1404075 2.2808127,0 2.2808151,-1.1404075 2.2808151,-1.1404075 V 3.0578262 c 0,0 -4.7e-6,-0.7602718 -2.2808151,-0.7602718 z" />
      <path
         style="display:inline;fill:none;stroke:#000000;stroke-width:0.318476;stroke-linecap:butt;stroke-linejoin:miter;stroke-dasharray:none;stroke-opacity:1"
         d="m 1.2592031,6.0989129 c 0,0 0,1.1404076 2.2808151,1.1404076 2.2808151,0 2.2808151,-1.1404076 2.2808151,-1.1404076 V 3.0578262 c 0,0 0,0.7602716 -2.2808151,0.7602716 -2.2808151,0 -2.2808151,-0.7602716 -2.2808151,-0.7602716 z"
         id="path241" />
      <path
         style="display:inline;fill:#000000;fill-opacity:1;stroke:none;stroke-width:0.126712px;stroke-linecap:butt;stroke-linejoin:miter;stroke-opacity:1"
         d="M 2.0194748,6.9858965 2.7797465,7.1932018 V 3.8180979 L 2.0194748,3.6683778"
         id="path243"
         sodipodi:nodetypes="cccc" />
      <path
         style="display:inline;fill:#000000;fill-opacity:1;stroke:none;stroke-width:0.126911;stroke-linecap:butt;stroke-linejoin:miter;stroke-dasharray:none;stroke-opacity:1"
         d="m 3.5400182,3.8180978 v 3.4212227 l 0.7602717,-0.049168 -1e-7,-3.3720543 z"
         id="path247"
         sodipodi:nodetypes="ccccc" />
      <path
         style="display:inline;fill:#000000;fill-opacity:1;stroke:none;stroke-width:0.126712px;stroke-linecap:butt;stroke-linejoin:miter;stroke-opacity:1"
         d="M 5.0605615,3.6913859 V 6.8591847 6.9858965 L 5.6941216,6.4790488 5.8208333,6.0989129 V 3.1845381 L 5.4406975,3.5646739 Z"
         id="path249"
         sodipodi:nodetypes="cccccccc" />
      <path
         id="path1321"
         style="display:inline;fill:#000000;fill-opacity:0.266323;stroke:#000000;stroke-width:0.318476;stroke-linecap:butt;stroke-linejoin:miter;stroke-dasharray:none;stroke-opacity:1"
         d="m 3.5400182,2.2975544 c -2.2808128,0 -2.2808151,0.7602718 -2.2808151,0.7602718 0,0 2.3e-6,0.7602717 2.2808151,0.7602717 2.2808127,0 2.2808151,-0.7602717 2.2808151,-0.7602717 0,0 -2.4e-6,-0.7602718 -2.2808151,-0.7602718 z" />
      <path
         style="display:inline;fill:#000000;fill-opacity:1;stroke:none;stroke-width:0.126712px;stroke-linecap:butt;stroke-linejoin:miter;stroke-opacity:1"
         d="M 2.0194748,2.4242663 V 3.6913859 L 1.5126271,3.437962 1.2592031,3.0578262 1.5126271,2.6776903 Z"
         id="path1375"
         sodipodi:nodetypes="cccccc" />
      <path
         style="display:inline;fill:#000000;fill-opacity:1;stroke:none;stroke-width:0.126712px;stroke-linecap:butt;stroke-linejoin:miter;stroke-opacity:1"
         d="M 2.7797465,2.2975544 V 3.8180978 H 3.5400182 V 2.2975544"
         id="path1377"
         sodipodi:nodetypes="cccc" />
      <path
         style="display:inline;fill:#000000;fill-opacity:1;stroke:none;stroke-width:0.126712px;stroke-linecap:butt;stroke-linejoin:miter;stroke-opacity:1"
         d="m 4.3002898,2.2975544 v 1.4871638 l 0.7602717,-0.1375722 10e-8,-1.2228797 z"
         id="path1379"
         sodipodi:nodetypes="ccccc" />
    </g>
    <g
       id="g1319"
       style="fill:#000000;fill-opacity:1"
       transform="matrix(1.160392,0,0,1.160392,-2.3238055,-0.8485401)">
      <text
         xml:space="preserve"
         style="font-style:normal;font-variant:normal;font-weight:bold;font-stretch:normal;font-size:2.46944px;line-height:1.25;font-family:sans-serif;-inkscape-font-specification:'sans-serif, Bold';font-variant-ligatures:normal;font-variant-caps:normal;font-variant-numeric:normal;font-variant-east-asian:normal;fill:#000000;fill-opacity:1;stroke:none;stroke-width:0.264583"
         x="7.6284947"
         y="3.6794722"
         id="text1313"><tspan
           sodipodi:role="line"
           id="tspan1311"
           x="7.6284947"
           y="3.6794722">convexer's</tspan></text>
      <text
         xml:space="preserve"
         style="font-style:normal;font-variant:normal;font-weight:normal;font-stretch:normal;font-size:2.11667px;line-height:1.25;font-family:sans-serif;-inkscape-font-specification:'sans-serif, Normal';font-variant-ligatures:normal;font-variant-caps:normal;font-variant-numeric:normal;font-variant-east-asian:normal;fill:#000000;fill-opacity:1;stroke:none;stroke-width:0.264583"
         x="7.6232028"
         y="6.106586"
         id="text1317"><tspan
           sodipodi:role="line"
           id="tspan1315"
           x="7.6232028"
           y="6.106586">dumpster site</tspan></text>
    </g>
  </g>
</svg>
